<?xml version="1.0" encoding="UTF-8"?>
<svg width="327px" height="312px" viewBox="0 0 327 312" version="1.1" xmlns="http://www.w3.org/2000/svg" xmlns:xlink="http://www.w3.org/1999/xlink">
    <!-- Generator: Sketch 42 (36781) - http://www.bohemiancoding.com/sketch -->
    <title>clisson-design-logo-footer</title>
    <desc>Created with Sketch.</desc>
    <defs></defs>
    <g id="Page-1" stroke="none" stroke-width="1" fill="none" fill-rule="evenodd">
        <g id="clisson-design-logo-footer" fill-rule="nonzero">
            <g id="Group" transform="translate(29.000000, 29.000000)" fill="#000000">
                <g id="p2-link" stroke="#DEB656">
                    <path d="M53.05,6.86 C79.07,-1.15 107.14,-0.87 133.64,4.56 C161.89,10.52 188.42,23.01 212.53,38.71 C224.11,36.41 236.09,36.05 247.79,37.66 C253.68,38.66 260.04,40.26 264.21,44.84 C267.9,48.87 267.97,55.01 266.16,59.9 C263.45,66.89 257.76,72.1 252.11,76.75 C259.47,87.86 265.86,100.44 266.04,114.06 C266.15,116.15 265.95,119.25 263.21,119.41 C261.01,118.13 261.48,115.25 261.26,113.11 C261.32,100.74 256.07,89.06 249.27,78.98 C232.24,91.46 212.75,100.11 192.93,107.12 C162.52,117.46 130.57,125.51 98.22,123.91 C83.99,143.93 72.64,167.03 71.21,191.91 C70.01,207.19 73.91,223.83 85.43,234.6 C97.55,246.61 115.57,250.09 132.06,249.02 C154.2,247.97 175.33,238.36 192.11,224.13 C202.83,215.16 212.19,204.62 220.26,193.22 C229.3,180.26 236.31,165.1 236.29,149.02 C236.42,141.06 233.68,132.73 227.55,127.39 C219.31,119.68 206.84,118.91 196.36,121.56 C182.34,125.25 170.43,134.19 159.98,143.92 C151.16,152.38 142.69,161.92 138.71,173.69 C137.35,177.8 136.39,182.21 137.18,186.54 C140.52,184.4 143.71,181.13 148,181.45 C151.62,181.21 155.28,183.56 155.93,187.26 C156.93,192.5 156.26,199.35 151.03,202.17 C145.46,204.94 136.72,204.43 133.99,197.96 C131.18,190.52 132.79,182.24 134.87,174.81 C139.08,161.29 148.21,149.94 158.32,140.29 C170.05,129.01 184.56,119.55 201.03,117.56 C210.5,116.64 220.99,117.14 228.91,123.06 C235.28,127.72 238.61,135.41 239.8,143.03 C241.78,156.63 239.87,170.75 234.4,183.35 C229.28,195.33 221.28,205.92 211.95,214.94 C191.97,234.95 165.49,249.24 137.05,251.64 C121.65,253.29 105.5,251.57 91.68,244.22 C75.47,235.55 62.43,220.56 57.25,202.81 C52.81,187.61 53.58,171.2 58.07,156.11 C61.62,143.91 67.56,132.55 74.45,121.92 C58.76,118.91 43.03,114.77 28.96,107.01 C18.36,101.14 8.6,92.6 3.92,81.17 C-2.19,66.12 -0.01,47.93 9.97,35.03 C20.64,21.13 36.65,12.28 53.05,6.86" id="p2"></path>
                </g>
                <g id="p3-link" transform="translate(6.000000, 9.000000)" stroke="#271611">
                    <path d="M41.42,10.53 C65.36,-0.28 92.43,-0.79 118.1,2.32 C147.4,5.86 175.77,15.8 201.29,30.54 C165.35,38.57 130.14,52.88 101.55,76.52 C89.6,86.28 79.07,97.7 69.99,110.17 C55.28,107.51 40.51,103.86 27.22,96.81 C18.21,91.99 9.81,85.21 5.09,75.96 C-1.02,64.07 -0.69,48.94 6.68,37.66 C14.81,25.02 28.04,16.72 41.42,10.53" id="p3"></path>
                </g>
                <g id="p4-link" transform="translate(217.000000, 39.000000)" stroke="#271611">
                    <path d="M0.21,3.02 C12.38,0.63 25.32,-0.76 37.38,2.89 C42.76,4.39 47.89,9.03 47.28,15.06 C46.51,23.7 39.45,29.83 33.51,35.39 C24.4,22.76 12.94,11.93 0.21,3.02" id="p4"></path>
                </g>
                <g id="p5-link" transform="translate(100.000000, 42.000000)" stroke="#271611">
                    <path d="M65.7,20.83 C80.33,12.2 96.04,5.39 112.4,0.82 C126,9.8 138.32,20.91 147.67,34.32 C131.86,45.78 113.91,53.93 95.59,60.48 C65.01,71.22 32.94,78.59 0.41,79.05 C17.64,55.21 40.47,35.77 65.7,20.83" id="p5"></path>
                </g>
            </g>
            <g id="p1-link" fill="#271611">
                <polyline id="p1" points="0 0 327 0 327 312 0 312 0 0"></polyline>
            </g>
            <g id="p2-link" transform="translate(29.000000, 30.000000)" fill="#DEB656">
                <path d="M53.05,6.86 C79.07,-1.15 107.14,-0.87 133.64,4.56 C161.89,10.52 188.42,23.01 212.53,38.71 C224.11,36.41 236.09,36.05 247.79,37.66 C253.68,38.66 260.04,40.26 264.21,44.84 C267.9,48.87 267.97,55.01 266.16,59.9 C263.45,66.89 257.76,72.1 252.11,76.75 C259.47,87.86 265.86,100.44 266.04,114.06 C266.15,116.15 265.95,119.25 263.21,119.41 C261.01,118.13 261.48,115.25 261.26,113.11 C261.32,100.74 256.07,89.06 249.27,78.98 C232.24,91.46 212.75,100.11 192.93,107.12 C162.52,117.46 130.57,125.51 98.22,123.91 C83.99,143.93 72.64,167.03 71.21,191.91 C70.01,207.19 73.91,223.83 85.43,234.6 C97.55,246.61 115.57,250.09 132.06,249.02 C154.2,247.97 175.33,238.36 192.11,224.13 C202.83,215.16 212.19,204.62 220.26,193.22 C229.3,180.26 236.31,165.1 236.29,149.02 C236.42,141.06 233.68,132.73 227.55,127.39 C219.31,119.68 206.84,118.91 196.36,121.56 C182.34,125.25 170.43,134.19 159.98,143.92 C151.16,152.38 142.69,161.92 138.71,173.69 C137.35,177.8 136.39,182.21 137.18,186.54 C140.52,184.4 143.71,181.13 148,181.45 C151.62,181.21 155.28,183.56 155.93,187.26 C156.93,192.5 156.26,199.35 151.03,202.17 C145.46,204.94 136.72,204.43 133.99,197.96 C131.18,190.52 132.79,182.24 134.87,174.81 C139.08,161.29 148.21,149.94 158.32,140.29 C170.05,129.01 184.56,119.55 201.03,117.56 C210.5,116.64 220.99,117.14 228.91,123.06 C235.28,127.72 238.61,135.41 239.8,143.03 C241.78,156.63 239.87,170.75 234.4,183.35 C229.28,195.33 221.28,205.92 211.95,214.94 C191.97,234.95 165.49,249.24 137.05,251.64 C121.65,253.29 105.5,251.57 91.68,244.22 C75.47,235.55 62.43,220.56 57.25,202.81 C52.81,187.61 53.58,171.2 58.07,156.11 C61.62,143.91 67.56,132.55 74.45,121.92 C58.76,118.91 43.03,114.77 28.96,107.01 C18.36,101.14 8.6,92.6 3.92,81.17 C-2.19,66.12 -0.01,47.93 9.97,35.03 C20.64,21.13 36.65,12.28 53.05,6.86" id="p2"></path>
            </g>
            <g id="p3-link" transform="translate(35.000000, 38.000000)" fill="#271611">
                <path d="M41.42,10.53 C65.36,-0.28 92.43,-0.79 118.1,2.32 C147.4,5.86 175.77,15.8 201.29,30.54 C165.35,38.57 130.14,52.88 101.55,76.52 C89.6,86.28 79.07,97.7 69.99,110.17 C55.28,107.51 40.51,103.86 27.22,96.81 C18.21,91.99 9.81,85.21 5.09,75.96 C-1.02,64.07 -0.69,48.94 6.68,37.66 C14.81,25.02 28.04,16.72 41.42,10.53" id="p3"></path>
            </g>
            <g id="p4-link" transform="translate(246.000000, 68.000000)" fill="#271611">
                <path d="M0.21,3.02 C12.38,0.63 25.32,-0.76 37.38,2.89 C42.76,4.39 47.89,9.03 47.28,15.06 C46.51,23.7 39.45,29.83 33.51,35.39 C24.4,22.76 12.94,11.93 0.21,3.02" id="p4"></path>
            </g>
            <g id="p5-link" transform="translate(129.000000, 71.000000)" fill="#271611">
                <path d="M65.7,20.83 C80.33,12.2 96.04,5.39 112.4,0.82 C126,9.8 138.32,20.91 147.67,34.32 C131.86,45.78 113.91,53.93 95.59,60.48 C65.01,71.22 32.94,78.59 0.41,79.05 C17.64,55.21 40.47,35.77 65.7,20.83" id="p5"></path>
            </g>
        </g>
    </g>
</svg>