<svg viewBox="0 0 600 500" xmlns:xlink="http://www.w3.org/1999/xlink" height="500pt" xmlns="http://www.w3.org/2000/svg" width="800"><defs><path d="M0 0h600v500H0V0" id="a"/><path d="M204.41 39.45c18.11-7.75 38.07-10.17 57.64-9.71 40 .79 78.34 16.28 111.47 37.97 11.58-2.29 23.57-2.66 35.27-1.05 5.88 1 12.24 2.59 16.41 7.17 3.7 4.02 3.78 10.16 1.97 15.06-2.71 6.99-8.4 12.21-14.06 16.86 7.37 11.11 13.74 23.69 13.94 37.31.08 2.08-.09 5.19-2.82 5.35-2.23-1.23-1.74-4.15-1.97-6.27.07-12.39-5.19-24.07-11.99-34.16-17.04 12.49-36.55 21.14-56.39 28.16-30.39 10.32-62.32 18.37-94.66 16.77-14.24 20.01-25.58 43.12-27.01 68-1.2 15.28 2.7 31.92 14.22 42.69 12.12 12.01 30.14 15.5 46.63 14.41 22.39-1.05 43.72-10.87 60.61-25.35 10.49-8.87 19.66-19.24 27.59-30.44 9.04-12.96 16.05-28.13 16.03-44.21.13-7.96-2.61-16.28-8.73-21.61-8.25-7.72-20.73-8.49-31.22-5.84-14.01 3.69-25.91 12.63-36.36 22.36-9.01 8.65-17.69 18.45-21.53 30.57-1.21 3.88-2.01 8-1.26 12.04 3.33-2.14 6.53-5.4 10.82-5.08 3.62-.24 7.26 2.11 7.92 5.8.99 5.24.34 12.1-4.9 14.92-5.57 2.77-14.31 2.25-17.05-4.21-2.53-6.36-1.38-13.46 0-19.94 3.31-13.43 11.64-25.04 21.29-34.7 12.14-12.48 27.35-23.23 44.97-25.67 9.49-1.03 19.96-.68 28.06 4.97 6.74 4.61 10.29 12.54 11.5 20.4 1.98 13.6.07 27.72-5.4 40.33-5.12 11.98-13.12 22.57-22.45 31.59-19.98 20.01-46.46 34.3-74.9 36.7-15.39 1.65-31.53-.06-45.35-7.41-16.22-8.66-29.26-23.66-34.45-41.41-4.44-15.2-3.67-31.61.82-46.71 3.55-12.2 9.49-23.56 16.38-34.19-15.19-2.9-30.38-6.9-44.12-14.15-10.76-5.74-20.78-14.03-25.86-25.36-6.48-14.6-4.95-32.55 4.27-45.66 8.43-12.15 21.32-20.43 34.67-26.3" id="b"/><path d="M208.41 48.53c23.29-10.52 49.57-11.28 74.59-8.46 30.03 3.32 59.16 13.37 85.29 28.46-34.79 7.8-68.87 21.4-96.95 43.74-13.07 10.27-24.58 22.45-34.35 35.9-14.71-2.65-29.48-6.31-42.77-13.35-9.01-4.83-17.4-11.61-22.12-20.85-6.13-11.9-5.78-27.04 1.59-38.33 8.13-12.62 21.35-20.92 34.72-27.11" id="c"/><path d="M378.21 71.01c12.14-2.38 25.02-3.74 37.06-.16 5.41 1.5 10.63 6.13 10.01 12.21-.77 8.63-7.83 14.78-13.77 20.33-9.11-12.63-20.57-23.46-33.3-32.38" id="d"/><path d="M326.7 91.82c14.63-8.62 30.33-15.42 46.69-20 13.6 8.97 25.94 20.08 35.28 33.5-15.82 11.46-33.77 19.62-52.1 26.17-30.59 10.74-62.64 18.09-95.16 18.56 17.23-23.84 40.06-43.28 65.29-58.23" id="e"/><path d="M115.01 339.01c2.81-.3 3.58-3.55 5.19-5.43.87 8.1 1.5 16.25 1.63 24.4-3-3.33-3.43-8.13-6.28-11.58-7.29-10.87-25.17-11.21-33.19-1.03-5.63 7.21-6.94 16.73-6.88 25.62.16 7.6 1.8 15.73 7.13 21.47 8.71 9.13 25.46 9.77 34.01.09 2.44-2.36 4.1-5.56 7.21-7.17-3.44 9.04-11.73 16.32-21.39 17.88-9.13 1.51-19.19-.23-26.41-6.29-13.46-11.24-15.26-32.52-6.22-47.02 6.68-11.11 20.38-17.3 33.14-15.02 4.26.57 7.98 2.91 12.06 4.08" id="f"/><path d="M296.08 334.66c.29-.08.87-.23 1.16-.31-.11 7.91.3 15.83-.25 23.73-2.46-3.45-2.18-8.03-4.62-11.5-4.47-7.16-15.28-10.78-22.57-5.8-4.38 2.83-5.9 9.46-2.16 13.44 5.66 5.78 13.35 8.85 20.18 12.95 4.72 2.75 9.84 5.71 12.22 10.89 3.25 6.35 1.78 14.64-3.42 19.51-4.74 5.08-12.06 6.8-18.78 6.07-5.46-.4-10.37-3.28-15.81-3.71-1.3 1.42-2.22 3.11-3.31 4.68-.29-8.15-.48-16.34.1-24.47 2.58 3.63 2.32 8.5 4.94 12.14 4.68 6.58 13.88 9.22 21.5 6.93 5.15-1.62 9.06-7.31 7.4-12.71-1.78-5.89-7.71-8.78-12.66-11.58-6.39-3.72-13.42-6.85-18.4-12.5-4.95-5.56-5.15-14.59-.5-20.39 4.44-6.12 12.61-8.51 19.87-7.24 3.83.51 7.24 2.47 10.96 3.37 2.37.77 3.04-2.09 4.15-3.5" id="g"/><path d="M327.69 340.71c4.96-5.64 13.24-7.29 20.35-5.6 3.43.71 6.52 2.48 9.95 3.18 2.44-.15 2.98-3.2 4.48-4.63.25 8.21.89 16.58-.37 24.72-1.8-4.39-2.12-9.47-5.23-13.25-3.93-4.84-10.6-7.47-16.75-6.4-4.87.78-9.32 5.17-9.14 10.28.17 3.07 2.14 5.66 4.51 7.45 7.71 6 17.04 9.42 24.86 15.25 5.65 4.24 8.43 12.11 6.1 18.88-2.61 8.06-11.05 13.25-19.35 13.17-6.09.48-11.65-2.29-17.44-3.57-2.97-1.07-4.02 2.5-5.53 4.27-.16-8.07-.32-16.16.08-24.23 2.74 3.36 2.37 8.16 4.83 11.71 4.33 6.48 12.99 9.24 20.45 7.63 5.19-1.06 9.7-6.08 8.97-11.57-.52-4.4-3.98-7.67-7.54-9.9-6.22-3.87-12.89-6.99-18.89-11.2-3.48-2.52-6.68-5.76-8.02-9.93-1.83-5.57-.39-12.03 3.68-16.26" id="h"/><path d="M412.31 335.23c9.57-2.19 20.13.29 27.37 7.02 11.88 9.99 14.51 27.98 8.56 41.87-3.77 8.5-11.14 15.49-20.07 18.26-10.04 3.04-21.73 1.13-29.72-5.85-11.32-9.23-14.35-25.67-10.29-39.21 3.4-10.91 12.91-19.8 24.15-22.09" id="i"/><path d="M139 336h30v1.35c-3.15.33-6.83.04-9.26 2.47-1.87 1.84-1.52 4.73-1.74 7.12-.01 14.72-.01 29.44 0 44.16.1 2.36.03 6.05 3.09 6.51 6.33.72 12.77.5 19.12.06 4.47-.25 8.57-2.91 10.89-6.69 1.71-2.52 2.63-5.64 5.15-7.53-1.48 6.39-3.81 12.55-5.8 18.8H139v-1.35c2.44-.27 5.24.09 7.28-1.56 2.16-1.75 2.05-4.8 2.22-7.32.02-14.67-.02-29.35.02-44.03-.03-2.54-.02-5.18-.94-7.59-1.67-3.1-5.58-2.84-8.58-3.05V336" id="j"/><path d="M210.74 336c9.51-.01 19.01 0 28.51 0l.01 1.33c-2.85.26-6.43-.04-8.3 2.62-1.22 2.11-1.09 4.69-1.22 7.06.02 14.99.01 29.98 0 44.97.18 2.26-.12 4.97 1.59 6.74 2.1 2.03 5.21 1.94 7.91 2.23l.02 1.3h-28.53l.03-1.33c2.87-.31 6.61.08 8.37-2.77 1.11-2.2 1.04-4.76 1.14-7.16-.04-15.01-.01-30.02-.02-45.03-.17-2.2.06-4.81-1.63-6.49-2.1-2.04-5.2-1.87-7.89-2.16l.01-1.31" id="k"/><path d="M463.75 336h18.01c13.6 16.44 27.13 32.94 40.77 49.35-.08-13.12.01-26.23-.04-39.35-.2-2.46-.06-5.5-2.25-7.15-2.07-1.54-4.83-1.22-7.24-1.51V336h23.26l-.01 1.34c-2.47.28-5.28-.05-7.33 1.6-2.09 1.69-1.97 4.66-2.16 7.1-.15 19.28.24 38.57-.19 57.84-1.46-.99-2.88-2.05-3.98-3.43-13.8-16.9-27.75-33.68-41.59-50.55 0 13.71 0 27.42-.01 41.13.11 2.52-.01 5.27 1.35 7.52 1.95 2.43 5.37 2.1 8.15 2.37 0 .33.02.99.02 1.33-7.75.01-15.51 0-23.26 0l-.01-1.33c2.79-.31 6.27.07 8.16-2.49 1.4-2.18 1.26-4.93 1.36-7.41-.03-15.49-.01-30.98-.01-46.47-3.26-3.97-7.83-6.68-13.05-6.83.01-.43.04-1.29.05-1.72" id="l"/><path d="M413.48 338.62c6.78-1.72 14.77-.09 19.4 5.44 5.74 6.87 6.91 16.23 7.14 24.86-.02 8.5-.78 17.89-6.55 24.63-4.98 5.98-13.67 8.23-21 5.75-6.01-2.05-10-7.64-12.06-13.41-3.29-9.54-3.41-20.04-1.33-29.85 1.66-7.58 6.42-15.41 14.4-17.42" id="m"/><path d="M292.97 422.51c2.36.1 3.63-2.44 5.35-3.68-1.67 5.96-2.11 12.41-5.01 17.94-.32-3.58.33-7.81-2.47-10.6-4.3-4.99-14.35-4.82-16.79 1.94-1.56 5.21 3.05 9.19 6.36 12.45 4.23 4.5 10.17 8.57 10.83 15.23.69 7.66-5.72 14.61-13.24 15.28-5.55 1.21-10.54-1.92-15.8-2.88-1.67.87-2.85 2.39-4.25 3.6 1.62-6.62 2.11-13.6 4.95-19.85.31 4.04-.56 8.57 1.93 12.1 2.67 4.31 8.39 5.85 13.11 4.54 5.98-1.48 8.52-9.67 4.93-14.53-2.71-3.85-6.13-7.14-9.44-10.46-3.53-3.16-6.54-7.55-5.89-12.52.46-6.33 6.34-11.16 12.48-11.52 4.59-.68 8.7 1.75 12.95 2.96" id="n"/><path d="M137.56 420.97c5.77-.88 11.64-.34 17.46-.48 6.62.08 14.05.47 19.14 5.27 6.61 6.07 7.82 16.22 4.71 24.35-2.22 7.54-8.44 13.08-15.17 16.69-6.03 3.15-13.01 3.57-19.68 3.46-6.5-.11-13 .21-19.48-.22 2.05-.84 4.3-1.22 6.26-2.27 1.65-1.27 2.14-3.43 2.81-5.28 2.92-10.14 5.77-20.3 8.71-30.44.78-2.84 1.74-5.75 1.36-8.72-1.57-1.66-4.13-1.53-6.12-2.36" id="o"/><path d="M320.48 420.89c6.95-.65 13.98-.55 20.95-.09-2.78 1.16-6.63 1.44-7.61 4.85-2.16 6.07-3.55 12.4-5.45 18.57-1.91 7.63-4.88 15.04-6.11 22.81 1.69 1.9 4.62 1.72 6.81 2.73-7.27.89-14.67.59-21.96.18 2.34-.9 5-1.12 7.1-2.57 1.59-2.06 2.34-4.6 3.08-7.06 2.98-10.59 6.03-21.16 9-31.75.27-1.88 1.24-4.12-.09-5.79-1.84-.84-3.84-1.23-5.72-1.88" id="p"/><path d="M355.3 448.9c1.05-14.55 13.25-27.38 27.74-29.14 5.14-.89 10.29.24 15.19 1.74 2.3.98 3.95-1.59 5.84-2.41-1.68 5.55-2.23 11.49-4.92 16.7-.39-3.35.56-7.29-1.99-9.99-3.75-4.59-10.49-4.72-15.78-3.28-8.4 2.31-14.1 10.02-16.87 17.91-2.6 7.88-2.94 17.61 2.8 24.23 4.73 5.1 12.49 4.29 18.49 2.24 1.41-5.66 3.73-11.13 4.47-16.94.12-4.01-5.11-3.02-7.68-4.12 7.4-1.18 14.98-.53 22.44-.35-2.07.8-4.25 1.33-6.2 2.41-1.33 1.15-1.78 2.95-2.36 4.54-1.56 5.13-2.99 10.3-4.47 15.46-7.85 3.45-17.07 4.8-25.19 1.47-7.89-3.24-12.23-12.21-11.51-20.47" id="q"/><path d="M207.2 420.95c12.22-1.03 24.54-.15 36.8-.46-1.06 4.23-1.95 8.53-3.67 12.56-.39-2.13-.14-4.41-1-6.42-1.17-1.8-3.17-3-5.29-3.27-4.37-.64-8.81-.3-13.21-.35-1.85 6.68-3.73 13.35-5.61 20.02 4-.18 8.48.6 12.02-1.74 2.03-1.81 3.29-4.28 4.98-6.38-1.54 6.67-3.04 13.45-5.74 19.77-.33-2.81 1.29-6.74-1.78-8.49-3.25-1.17-6.81-.56-10.19-.69-1.96 7.22-4.58 14.3-5.79 21.7 6.13.86 12.66 1.13 18.53-1.11 4.88-1.87 7.34-6.74 10.57-10.48-.94 5.08-3.18 9.77-4.8 14.64-12.93-.18-25.89.38-38.81-.3 2.13-.78 4.44-1.14 6.41-2.29 1.68-1.9 2.26-4.47 3.02-6.83 2.7-9.63 5.42-19.26 8.22-28.86.81-2.91 1.74-5.92 1.26-8.97-1.84-1.01-3.96-1.35-5.92-2.05" id="r"/><path d="M427.21 420.92c4.52-.69 9.1-.36 13.65-.43 5.01 12.82 10.05 25.62 15.05 38.45 2.74-9.29 5.3-18.63 8.06-27.91.61-2.25 1.21-4.54 1.19-6.88-.69-2.63-4.15-2.1-6.05-3.24 5.79-.74 11.66-.49 17.48-.13-2.33.94-5.02 1.21-7.03 2.8-2.56 3.63-3.12 8.18-4.49 12.32-3.61 11.98-6.56 24.18-10.58 36.03-5.91-14.02-11.13-28.32-16.82-42.42-3.01 10.61-6.08 21.21-9.08 31.83-.36 2-1.34 4.21-.34 6.18 1.63 1.21 3.69 1.58 5.5 2.46-5.83.4-11.7.48-17.51-.03 2.79-1.18 6.92-1.02 8.16-4.37 2.12-4.9 3.13-10.19 4.73-15.28 2.19-8.12 4.93-16.11 6.81-24.31-1.2-3.67-5.67-3.89-8.73-5.07" id="s"/><path d="M151.41 423.01c5.11-.04 10.67-.44 15.17 2.46 3.96 2.32 5.91 6.94 6.27 11.36.88 8.88-1.6 18.54-8.21 24.83-5.29 4.79-12.77 5.82-19.64 6.11-2.11.2-4.15-.37-6.08-1.17 4.22-14.52 8.24-29.09 12.49-43.59" id="t"/></defs><g stroke-width="10pt"><use stroke="#fff" xlink:href="#a"/><use stroke="#3c3c3c" xlink:href="#b"/><use stroke="#fff" xlink:href="#c"/><use stroke="#fff" xlink:href="#d"/><use stroke="#fff" xlink:href="#e"/><use stroke="#3c3c3c" xlink:href="#f"/><use stroke="#3c3c3c" xlink:href="#g"/><use stroke="#3c3c3c" xlink:href="#h"/><use stroke="#3c3c3c" xlink:href="#i"/><use stroke="#3c3c3c" xlink:href="#j"/><use stroke="#3c3c3c" xlink:href="#k"/><use stroke="#3c3c3c" xlink:href="#l"/><use stroke="#fff" xlink:href="#m"/><use stroke="#3c3c3c" xlink:href="#n"/><use stroke="#3c3c3c" xlink:href="#o"/><use stroke="#3c3c3c" xlink:href="#p"/><use stroke="#3c3c3c" xlink:href="#q"/><use stroke="#3c3c3c" xlink:href="#r"/><use stroke="#3c3c3c" xlink:href="#s"/><use stroke="#fff" xlink:href="#t"/></g><use xlink:href="#a" fill="#fff"/><use xlink:href="#b" fill="#3c3c3c"/><use xlink:href="#c" fill="#fff"/><use xlink:href="#d" fill="#fff"/><use xlink:href="#e" fill="#fff"/><use xlink:href="#f" fill="#3c3c3c"/><use xlink:href="#g" fill="#3c3c3c"/><use xlink:href="#h" fill="#3c3c3c"/><use xlink:href="#i" fill="#3c3c3c"/><use xlink:href="#j" fill="#3c3c3c"/><use xlink:href="#k" fill="#3c3c3c"/><use xlink:href="#l" fill="#3c3c3c"/><use xlink:href="#m" fill="#fff"/><use xlink:href="#n" fill="#3c3c3c"/><use xlink:href="#o" fill="#3c3c3c"/><use xlink:href="#p" fill="#3c3c3c"/><use xlink:href="#q" fill="#3c3c3c"/><use xlink:href="#r" fill="#3c3c3c"/><use xlink:href="#s" fill="#3c3c3c"/><use xlink:href="#t" fill="#fff"/></svg>
